<svg width="647" height="82" viewBox="0 0 647 82" xmlns="http://www.w3.org/2000/svg" xmlns:xlink="http://www.w3.org/1999/xlink"><title>alpha白</title><defs><path id="a" d="M75.385 82H0V0h75.385v82z"/></defs><g fill="none" fill-rule="evenodd"><path d="M162.833 41.529c.014.506.014 1.021.007 1.54a634.01 634.01 0 0 0-.046 7.82v30.954l-.077.085a6.97 6.97 0 0 1-1.275.04 19.22 19.22 0 0 0-1.267-.04h-17.687l-.078-.085v-5.394c12.07-7.008 20.24-20.002 20.423-34.92zM249.936 82h-20.473V40.977c0-1.638-.163-3.154-.492-4.545a21.226 21.226 0 0 0-1.308-3.892 20.513 20.513 0 0 0-4.175-6.06 20.38 20.38 0 0 0-6.063-4.174 24.108 24.108 0 0 0-3.846-1.352c-1.367-.354-2.896-.532-4.586-.532-1.638 0-3.154.178-4.545.532a23.513 23.513 0 0 0-3.89 1.352 20.307 20.307 0 0 0-6.06 4.174 27.959 27.959 0 0 0-2.292 2.788 18.988 18.988 0 0 0-1.884 3.272 21.005 21.005 0 0 0-1.31 3.892c-.327 1.39-.491 2.907-.491 4.545V82h-20.39l-.082-40.573V41.1c.15-.028.163-.985.163-.985.055-.6.082-1.188.082-1.761 0-.576.055-1.163.163-1.764.274-2.295.683-4.44 1.23-6.434a41.096 41.096 0 0 1 1.964-5.615c3.166-6.941 7.725-12.567 13.677-16.885a42.82 42.82 0 0 1 7.286-4.14c2.623-1.174 5.514-2.09 8.68-2.746a20.895 20.895 0 0 1 2.416-.368c.846-.084 1.733-.176 2.662-.288 2.893-.216 5.636-.122 8.23.288 2.592.41 4.953.97 7.08 1.68 3.769 1.257 7.209 2.95 10.32 5.08a40.676 40.676 0 0 1 8.146 7.297c2.377 2.785 4.354 5.955 5.937 9.509a45.911 45.911 0 0 1 2.13 5.657c.6 1.967 1.037 4.095 1.31 6.392a32.946 32.946 0 0 1 .328 4.589v.328c.068.029.083.493.083.493V82zm87.547 0H317.01V40.977c0-1.638-.163-3.154-.49-4.545a21.459 21.459 0 0 0-1.311-3.892 20.5 20.5 0 0 0-4.177-6.06 20.332 20.332 0 0 0-6.061-4.174 24.028 24.028 0 0 0-3.848-1.352c-1.364-.354-2.893-.532-4.584-.532-1.64 0-3.153.178-4.547.532a23.72 23.72 0 0 0-3.89 1.352 20.357 20.357 0 0 0-6.058 4.174 27.968 27.968 0 0 0-2.293 2.788 19.185 19.185 0 0 0-1.884 3.272 21.15 21.15 0 0 0-1.308 3.892c-.33 1.39-.492 2.907-.492 4.545V82h-20.473V41.1c.056-.111.096-.137.123-.082.028.054.043.025.043-.084v-.82c.053-.598.08-1.187.08-1.76 0-.576.055-1.163.166-1.764.272-2.295.68-4.44 1.226-6.434a41.233 41.233 0 0 1 1.966-5.615c3.166-6.941 7.723-12.567 13.674-16.885a43.11 43.11 0 0 1 7.288-4.14c2.62-1.174 5.513-2.09 8.68-2.746.764-.164 1.57-.288 2.418-.368.846-.084 1.73-.176 2.662-.288 2.89-.216 5.635-.122 8.229.288 2.592.41 4.955.97 7.084 1.68 3.767 1.257 7.205 2.95 10.316 5.08a40.924 40.924 0 0 1 8.15 7.297c2.373 2.785 4.352 5.955 5.935 9.509a46.73 46.73 0 0 1 2.129 5.657c.6 1.967 1.033 4.095 1.31 6.392a32.942 32.942 0 0 1 .327 4.589v.328c0 .109.014.138.042.084.027-.055.04-.03.04.082V82zm114.089-.056H431.1V41.083c0-.055.03-.081.083-.081.107-3.329.477-6.373 1.106-9.132.626-2.754 1.485-5.31 2.58-7.655 2.127-4.696 4.912-8.734 8.349-12.122a43.468 43.468 0 0 1 5.529-4.665 36.772 36.772 0 0 1 6.51-3.686c2.349-1.089 4.898-1.965 7.655-2.617 2.76-.659 5.8-1.012 9.132-1.069v20.31c-3.276.109-6.076.71-8.394 1.801-2.318 1.094-4.352 2.509-6.1 4.257a28.817 28.817 0 0 0-2.293 2.784 19.228 19.228 0 0 0-1.885 3.276 21.308 21.308 0 0 0-1.308 3.85c-.327 1.365-.493 2.893-.493 4.586v41.024zM366.15 30.76c.01-.022.04-.062.05-.08 1.629-2.836 3.865-5.182 6.71-7.037a19.48 19.48 0 0 1 4.71-2.246c1.718-.579 3.604-.918 5.679-1.04 2.247-.038 4.373.23 6.39.83 2.834.757 5.259 1.975 7.246 3.642.24.201.478.41.708.62a19.498 19.498 0 0 1 2.904 3.254c.18.25.372.51.542.77.118.17.228.337.337.507.17.251.31.508.469.78H366.15zm58.834 9.131c-.012-.429-.041-.867-.061-1.297a41.414 41.414 0 0 0-1.157-7.587c-.1-.407-.22-.797-.33-1.207a40.035 40.035 0 0 0-3.653-8.784 14.163 14.163 0 0 0-.59-1.009 44.712 44.712 0 0 0-3.703-5.207 47.064 47.064 0 0 0-4.302-4.444 41.047 41.047 0 0 0-1.09-.948c-.047-.03-.078-.049-.117-.079a41.724 41.724 0 0 0-7.057-4.673c-.18-.088-.36-.18-.541-.258a90.844 90.844 0 0 0-4.09-1.759c-.3-.109-.6-.237-.89-.339A40.719 40.719 0 0 0 384.07.065c-.44 0-.88.011-1.31.02-.447.02-.878.04-1.305.07a9.78 9.78 0 0 0-.49.04c-.3.02-.62.04-.928.07-.15.02-.28.04-.431.05a49.72 49.72 0 0 0-2.554.35c-.088.01-.18.038-.26.05-.837.158-1.665.327-2.484.527a39.13 39.13 0 0 0-2.555.72c-.34.098-.681.211-1.01.328-.151.041-.3.101-.448.16-.35.121-.68.25-1.02.381-.398.148-.797.307-1.187.478a.07.07 0 0 0-.048.021c-.39.16-.781.33-1.16.518-.896.4-1.767.848-2.624 1.328-.28.15-.58.32-.85.48a44.35 44.35 0 0 0-2.155 1.356c-.73.48-1.438 1.008-2.146 1.55a44.21 44.21 0 0 0-1.997 1.634 41.236 41.236 0 0 0-1.876 1.766c-.23.221-.458.441-.668.68-.23.23-.45.46-.66.7-.29.298-.558.617-.838.937-.22.24-.42.49-.63.75-.208.258-.428.518-.637.796a42.315 42.315 0 0 0-2.846 4.123.45.45 0 0 1-.08.14c-.198.338-.408.688-.6 1.048-.227.4-.437.82-.657 1.228-.19.37-.37.728-.528 1.11a1.34 1.34 0 0 0-.16.34c-.11.227-.22.446-.31.675-.27.581-.508 1.16-.73 1.74a23.74 23.74 0 0 0-.498 1.377c-.1.25-.18.518-.26.777-.108.32-.208.648-.298.97-.09.29-.18.568-.25.857-.14.51-.28 1.028-.39 1.546-.07.3-.14.58-.187.89a35.22 35.22 0 0 0-.392 2.117c-.05.348-.1.687-.141 1.026-.028.22-.048.45-.08.68-.047.448-.096.917-.13 1.388a51.862 51.862 0 0 0-.117 2.105c-.01.568 0 1.098 0 1.647a48.25 48.25 0 0 0 .169 3.213l.119 1.06c.039.418.1.828.16 1.226.05.28.1.58.15.868.05.361.11.701.189 1.04.073.34.13.678.209 1.017.082.34.16.678.242 1.008.248 1.02.548 2.047.888 3.035.1.3.219.618.329.928.11.32.24.627.359.958.25.64.508 1.27.798 1.887.13.3.27.597.419.9.19.39.39.776.58 1.166a41.087 41.087 0 0 0 12.627 14.464c.059.06.138.11.22.16.309.208.609.42.917.616.35.243.7.472 1.059.68.33.221.67.431 1.017.62.61.348 1.219.68 1.847 1 .29.15.59.287.879.437.299.15.599.291.899.42a39.38 39.38 0 0 0 6.628 2.326c.109.04.229.068.359.09.438.12.897.21 1.347.31a52.61 52.61 0 0 0 4.312.66 50.85 50.85 0 0 0 3.394.228c.269.01.53.01.809.01.349 0 .698 0 1.047-.01l1.459-.06a41.44 41.44 0 0 0 4.212-.49l.209-.029c.309-.06.608-.11.907-.19 3.704-.778 7.019-1.886 9.913-3.304a43.356 43.356 0 0 0 3.243-1.717c.25-.162.5-.31.749-.46.39-.229.758-.479 1.139-.728a42.162 42.162 0 0 0 2.375-1.746c.222-.16.43-.33.638-.5a49.508 49.508 0 0 0 3.395-3.125c.109-.108.229-.22.33-.339.319-.33.638-.669.937-1.008.34-.4.677-.8 1.029-1.187.269-.33.529-.668.787-1.008.49-.64.968-1.288 1.428-1.958l-20.293-7.706a19.685 19.685 0 0 1-2.474 1.825 20.397 20.397 0 0 1-4.702 2.25c-1.727.577-3.654.916-5.78 1.03-2.286.046-4.334-.204-6.098-.742-1.778-.548-3.374-1.229-4.792-2.047-2.895-1.647-5.22-3.872-6.957-6.718a8.993 8.993 0 0 1-.46-.728h16.432c.458.011.917.011 1.375.02 2.708.03 5.412.04 8.117.02 3.163-.029 6.327-.04 9.502-.04h21.97c.2-.769.369-1.547.528-2.325.009-.08.03-.17.04-.249.06-.32.13-.65.17-.98.14-.827.249-1.657.328-2.494.04-.35.072-.699.09-1.028.03-.29.052-.57.06-.86.01-.068.01-.129.01-.188.04-.688.059-1.398.059-2.107 0-.38 0-.748-.007-1.119z" fill="#FFF"/><mask id="b" fill="#fff"><use xlink:href="#a"/></mask><path d="M75.385 63.313C68.084 74.556 55.409 82 41.005 82 18.36 82 0 63.634 0 40.996 0 18.361 18.359 0 41.006 0 55.363 0 68.009 7.391 75.32 18.583l-11.8 5.948c-.013 0-.02 0-.025.011l-3.451 1.743-3.26 1.641a20.446 20.446 0 0 0-15.78-7.425c-11.323 0-20.502 9.171-20.502 20.495 0 11.322 9.179 20.502 20.503 20.502a20.422 20.422 0 0 0 15.87-7.539l2.327 1.177 5.229 2.643 7.912 3.995 2.94 1.486.1.053z" fill="#FFF" mask="url(#b)"/><path fill="#717071" d="M72.344 61.774l-7.912-3.995h.006z"/><path d="M145.506 45.887c-.526 2.438-1.34 4.667-2.418 6.644-1.092 1.988-2.392 3.744-3.874 5.232a27.5 27.5 0 0 1-4.966 3.888c-1.944 1.182-4.154 2.066-6.58 2.638-1.5.327-3.158.533-5.101.658-.415.031-.885.045-1.391.045-1.496 0-2.945-.17-4.31-.508-1.632-.396-3.14-.877-4.485-1.436-2.782-1.223-5.214-2.84-7.261-4.829a27.04 27.04 0 0 1-3.92-4.993 24.802 24.802 0 0 1-2.698-6.397l-.025-.096c-.326-1.47-.54-3.155-.663-5.194a18.205 18.205 0 0 1 .507-5.727c.422-1.653.883-3.114 1.384-4.342l.09-.222c.684-1.423 1.359-2.65 2.062-3.744a23.803 23.803 0 0 1 2.632-3.359l.098-.106a26.668 26.668 0 0 1 6.91-4.92 27.147 27.147 0 0 1 4.465-1.638c1.67-.46 3.504-.696 5.454-.696.195-.006.449-.006.702-.006 1.67 0 3.302.182 4.85.546 1.735.41 3.223.896 4.543 1.49 2.75 1.181 5.18 2.806 7.197 4.815a27.46 27.46 0 0 1 4.998 6.93c1.384 2.735 2.145 6.037 2.275 9.82.065 1.81-.091 3.61-.475 5.507m13.41-9.718c-.246-2.06-.65-4.004-1.21-5.772a41.392 41.392 0 0 0-2.001-5.16 38.412 38.412 0 0 0-3.12-5.553l-.261-.39a37.924 37.924 0 0 0-6.61-7.092l-.097-.07c-.293-.248-.592-.48-.884-.71-.3-.234-.58-.434-.86-.637l-.18-.128c-.306-.216-.624-.444-.95-.66l-.071-.044a13.554 13.554 0 0 0-.93-.61l-.182-.118a5.877 5.877 0 0 0-.395-.246 37.539 37.539 0 0 0-8.107-3.654l-.116-.04a71.846 71.846 0 0 0-2.55-.642 73.082 73.082 0 0 0-2.241-.495l-.552-.11c-.086-.013-.17-.033-.248-.046a41.44 41.44 0 0 0-3.315-.298l-.69-.04a8.1 8.1 0 0 1-.377-.013c-.065-.006-.11-.012-.15-.012a49.34 49.34 0 0 0-1.331-.02c-1.151 0-2.255.052-3.374.162-2.847.3-5.441.84-7.696 1.594a40.608 40.608 0 0 0-6.663 2.891l-.111.065-38.091 19.196-1.36.6a13.878 13.878 0 0 0-4.4 2.956c-2.671 2.64-4.141 6.168-4.141 9.94 0 3.762 1.463 7.285 4.122 9.918a14.14 14.14 0 0 0 5.232 3.283l1.027.377 37.052 18.727a37.225 37.225 0 0 0 7.807 3.42l1.26.318c.736.202 1.308.357 1.834.48h1.027l.286.28a39.03 39.03 0 0 0 6.104.573h.072c.819 0 1.71-.034 2.652-.105 3.263-.24 6.272-.805 8.944-1.67 2.672-.878 5.155-1.969 7.385-3.257l.338-.175.819-.417c10.732-6.694 17.492-18.676 17.648-31.272a50.816 50.816 0 0 0-.344-5.324" fill="#FFF"/><path d="M640.798 66h-133c-3.3 0-6-2.7-6-6V22c0-3.3 2.7-6 6-6h133c3.3 0 6 2.7 6 6v38c0 3.3-2.7 6-6 6" fill="#FFF" opacity=".7"/><path d="M538.718 42.771l-4.043-12.34-4.025 12.34h8.068zm-14.924 10.283l8.824-26.174h4.29l8.824 26.174h-3.674l-2.373-7.312h-10.002l-2.373 7.312h-3.516zm27.822 0h3.305V25.702h-3.305zm24.818-9.966c0-2.238-.357-3.976-1.072-5.212-.715-1.236-1.875-1.854-3.481-1.854-.937 0-1.843.208-2.716.624a11.77 11.77 0 0 0-2.487 1.608V49.38c.867.422 1.609.709 2.224.86.615.154 1.32.23 2.118.23 1.71 0 3.04-.627 3.99-1.881.949-1.254 1.424-3.088 1.424-5.502m3.41-.37c0 3.27-.782 5.875-2.347 7.814-1.564 1.94-3.542 2.91-5.932 2.91-.973 0-1.834-.112-2.584-.334a10.158 10.158 0 0 1-2.303-1.038v8.227h-3.305V33.42h3.305v2.057a12.12 12.12 0 0 1 2.734-1.855c1-.498 2.094-.747 3.278-.747 2.25 0 4.005.89 5.265 2.672 1.259 1.78 1.889 4.172 1.889 7.172m22.461 10.335H599v-11.18c0-.902-.044-1.743-.132-2.522-.087-.779-.254-1.403-.501-1.872a2.575 2.575 0 0 0-1.124-1.099c-.481-.24-1.137-.36-1.969-.36-.821 0-1.667.22-2.54.66a13.087 13.087 0 0 0-2.558 1.713v14.66h-3.305V25.702h3.305V35.6c.984-.879 1.957-1.553 2.918-2.022a6.86 6.86 0 0 1 3.041-.703c1.934 0 3.445.636 4.535 1.908 1.09 1.271 1.635 3.114 1.635 5.528v12.744zm19.21-4.834v-5.449c-.785.07-1.778.167-2.979.29-1.202.123-2.171.296-2.91.518-.879.27-1.605.683-2.179 1.24-.575.556-.862 1.333-.862 2.33 0 1.124.317 1.973.95 2.548.632.574 1.558.861 2.777.861 1.043 0 1.986-.226 2.83-.677a12.27 12.27 0 0 0 2.373-1.66zm0 2.742c-.27.2-.63.478-1.081.835a7.588 7.588 0 0 1-1.31.853 9.895 9.895 0 0 1-1.696.703c-.545.164-1.309.246-2.294.246a5.946 5.946 0 0 1-4.219-1.74c-.527-.539-.949-1.204-1.265-1.995a6.67 6.67 0 0 1-.475-2.505c0-1.36.287-2.517.861-3.472.575-.955 1.483-1.714 2.725-2.276 1.102-.504 2.402-.853 3.902-1.046 1.5-.194 3.118-.337 4.852-.43V39.5c0-.773-.117-1.397-.352-1.872a2.597 2.597 0 0 0-.984-1.098c-.422-.27-.937-.449-1.547-.537a13.287 13.287 0 0 0-1.881-.13c-.761 0-1.658.113-2.689.341a18.07 18.07 0 0 0-3.094.994h-.193V33.84c.609-.176 1.482-.369 2.619-.58a18.465 18.465 0 0 1 3.375-.316c1.348 0 2.484.105 3.41.316a6.557 6.557 0 0 1 2.496 1.143 4.9 4.9 0 0 1 1.6 2.091c.351.856.527 1.9.527 3.13v13.43h-3.287v-2.093z" fill="#E65D6E"/></g></svg>