<?xml version="1.0" encoding="utf-8"?>
<!-- Generator: Adobe Illustrator 21.0.0, SVG Export Plug-In . SVG Version: 6.00 Build 0)  -->
<svg version="1.1" id="Layer_1" xmlns="http://www.w3.org/2000/svg" xmlns:xlink="http://www.w3.org/1999/xlink" x="0px" y="0px"
	 viewBox="0 0 1364.9 402.5" style="enable-background:new 0 0 1364.9 402.5;" xml:space="preserve">
<style type="text/css">
	.st0{fill:#C1D7F7;}
	.st1{fill:#97B5EA;}
	.st2{fill:#3B51BC;}
	.st3{clip-path:url(#SVGID_2_);}
	.st4{fill:#A8D34A;}
	.st5{fill:#1F2A6B;}
</style>
<title>PrimeHub_logo</title>
<path class="st0" d="M272.2,161.2v-1.6v-1.5l-10.4-6.3L151.4,87.3c-4.3-2.5-9.7-2.5-14,0L13.2,159.8c-4.3,2.5-6.9,7.1-6.9,12
	l0.3,145.4c0,4.9,2.6,9.4,6.8,11.9l110,64.4c6.6,3.9,15.1,1.7,18.9-4.9c1.2-2.1,1.9-4.5,1.9-6.9l0.5-129.7c0-4.9,2.6-9.4,6.9-11.9
	l110.2-64.4c0,0,3.4-1.9,6.6-1s3.9,3.4,3.9,6.8V161.2z"/>
<path class="st1" d="M13.5,329.1l109.9,64.5c6.6,3.9,15.1,1.7,18.9-4.9c1.2-2.1,1.9-4.5,1.9-6.9l0.5-129.7c0-2.2,0.5-4.3,1.5-6.3
	L7.6,166c-0.8,1.8-1.3,3.8-1.2,5.8l0.3,145.4C6.6,322.1,9.2,326.6,13.5,329.1z"/>
<path class="st2" d="M407.8,238.2c1.3-2,2-4.4,2-6.8l0.3-146.5c0-4.6-2.4-8.8-6.4-11.2L291.5,8.2c-6.2-3.6-14.1-1.5-17.6,4.6
	c-1.2,2-1.8,4.2-1.8,6.5l0.1,139.8L407.8,238.2z"/>
<g>
	<defs>
		<path id="SVGID_1_" d="M272.1,19.3l0.2,277.5c0,7.1,5.8,12.9,12.9,12.9c2.3,0,4.5-0.6,6.5-1.8l111.7-65.5
			c3.9-2.3,6.4-6.5,6.4-11.1l0.3-146.5c0-4.6-2.4-8.8-6.4-11.2L291.5,8.2c-6.2-3.6-14.1-1.5-17.6,4.6
			C272.7,14.8,272.1,17,272.1,19.3z"/>
	</defs>
	<clipPath id="SVGID_2_">
		<use xlink:href="#SVGID_1_"  style="overflow:visible;"/>
	</clipPath>
	<g class="st3">
		<polygon class="st4" points="272.1,319.4 271.5,157.8 409.6,238.8 		"/>
	</g>
</g>
<path class="st5" d="M513.7,95.8h51.1c5.4,0,10.8,0.5,16.1,1.6c5.8,1.7,11.1,4.6,15.7,8.6c4.8,3.7,8.5,8.5,10.8,14
	c2.9,5.9,4.3,12.8,4.3,20.8c0,10.8-3.7,20.6-11,29.4c-7.6,9.3-18.6,14.1-33.1,14.4H535v56.8h-21.3V95.8z M535,163.8h31.7
	c7.9-0.1,13.9-2.7,17.9-7.6c3.7-4.5,5.7-10.2,5.7-16c0.1-4.2-0.7-8.4-2.3-12.3c-1.6-3-3.9-5.4-6.8-7.1c-4.6-2.9-9.9-4.4-15.3-4.1
	H535L535,163.8z"/>
<path class="st5" d="M633,137.7h20.1v11h0.4c6.7-8.2,15.4-12.3,26.1-12.3c7.8,0,15.3,2.9,21.1,8l-14.7,18c-4.3-3.5-8.7-5.2-13.3-5.2
	c-4.9-0.1-9.7,1.8-13.3,5.2c-4.1,3.4-6.3,8.9-6.4,16.5v62.4H633V137.7z"/>
<path class="st5" d="M713.2,95.8h20.2v20.8h-20.2L713.2,95.8z M713.2,137.7h20.2v103.6h-20.2L713.2,137.7z"/>
<path class="st5" d="M760.8,137.7H781v11h0.4c6.9-8.2,15.9-12.3,27.1-12.3c7.2,0.1,13,1.4,17.4,3.7c4.4,2.7,8.4,6,11.9,9.9
	c8.1-9.2,19-13.7,32.6-13.6c8.6,0,16.4,3,23.6,9.1c7.1,6.1,10.8,15.1,11,27v68.8h-20.2v-61.8c0-7.3-1.9-12.8-5.8-16.6
	c-3.9-3.8-8.8-5.7-14.9-5.8c-6.1,0-11.1,1.9-15,5.8s-5.9,9.4-6,16.6v61.8h-20.1v-61.8c0-7.3-1.9-12.8-5.8-16.6
	c-3.9-3.8-8.9-5.7-15-5.8c-6.1,0-11.1,1.9-14.9,5.8c-4.1,3.8-6.1,9.3-6.1,16.6v61.8h-20.2V137.7z"/>
<path class="st5" d="M950.9,197.4c0,8.3,2.3,14.7,7,19c4.3,4.4,10,6.6,17,6.6c8.2,0,15.5-3.4,22-10.1l14.6,12.9
	c-10.2,11.3-22.3,16.9-36.2,16.8c-5.2,0-10.5-0.8-15.5-2.4c-2.6-0.9-5-2.1-7.3-3.5c-2.5-1.3-4.9-2.8-7.1-4.7
	c-4.3-3.9-7.7-9.2-10.3-16.2c-2.9-6.7-4.3-15.3-4.3-26c0-10.2,1.3-18.8,3.8-25.5c2.5-6.9,5.7-12.4,9.7-16.4
	c3.8-3.9,8.4-6.9,13.4-8.8c4.6-1.7,9.5-2.7,14.5-2.7c11.5,0.1,21.2,4,29.1,11.7c8.1,7.8,12.1,18.5,12.3,32.2v17.2L950.9,197.4z
	 M993.4,180.2c-0.3-8.1-2.4-14.2-6.3-18.4c-3.9-3.9-8.8-5.9-14.9-5.9c-6.1,0-11,2-14.9,5.9c-3.8,4.1-5.9,10.3-6.3,18.4H993.4z"/>
<path class="st2" d="M1117,177.7h-55.9v63.6h-21.3V95.8h21.3v62.4h55.9V95.8h21.3v145.5H1117L1117,177.7z"/>
<path class="st2" d="M1170.4,137.7h20.2v61.8c0,7,1.9,12.5,5.7,16.4c3.7,3.9,8.9,6.1,14.3,5.9c5.4,0.2,10.6-2,14.2-5.9
	c3.7-3.9,5.6-9.4,5.6-16.4v-61.8h20.1v103.6h-20.2v-11.1h-0.4c-6.7,8.2-15.3,12.3-26,12.3c-8.3-0.1-15.8-3.3-22.5-9.4
	c-7.3-6-11-14.8-11.1-26.5L1170.4,137.7z"/>
<path class="st2" d="M1280.2,95.8h20.1v52.9c3.6-3.6,7.6-6.6,12.1-9c4.3-2.2,9-3.4,13.8-3.3c12.3,0.3,21.3,4.9,27,13.6
	c3,3.7,4.9,8.2,5.7,12.9c1,5.3,1.4,14.1,1.4,26.5c0,12.2-0.5,21-1.4,26.3c-1,5.6-2.9,10-5.7,13.3c-2.8,4-6.6,7.3-10.9,9.6
	c-4.9,2.6-10.4,3.9-16,3.9c-10.6-0.3-19.2-4.3-25.9-12v10.8h-20.2L1280.2,95.8z M1320.2,157.2c-4.5,0-8.1,1-10.7,2.9
	c-2.7,1.9-4.8,4.5-6.1,7.6c-1.3,3.3-2.1,6.7-2.4,10.2c-0.8,7.6-0.8,15.2,0,22.7c0.3,3.6,1.1,7.1,2.4,10.5c1.2,3.1,3.4,5.7,6.1,7.6
	c2.7,2,6.2,3,10.7,3c4.8,0,8.5-0.9,11.3-2.8c2.7-1.8,4.7-4.4,5.9-7.4c1.4-3.4,2.2-7,2.6-10.6c0.1-3.7,0.2-7.6,0.2-11.5
	c0-4.1-0.1-8.2-0.2-12.1c-0.4-3.5-1.3-6.9-2.6-10.2c-1.1-3.1-3.2-5.7-5.9-7.4C1328.8,158,1325,157.2,1320.2,157.2L1320.2,157.2z"/>
</svg>
