<?xml version="1.0" encoding="utf-8"?>
<!-- Uploaded to SVGRepo https://www.svgrepo.com -->
<svg version="1.1" id="Layer_1" xmlns="http://www.w3.org/2000/svg" xmlns:xlink="http://www.w3.org/1999/xlink" x="0px" y="0px"
	 width="212px" height="260px" viewBox="0 0 212 260" style="enable-background:new 0 0 212 260;" xml:space="preserve">
<style type="text/css">
  .st0{fill:rgba(0, 0, 0, 0.45);}
</style>
<path class="st0" d="M210,210c0,26.5-46.6,48-104,48S2,236.5,2,210v-23c6.3,6.1,14.5,11.6,24.6,16.3c21.4,9.9,49.6,15.3,79.4,15.3
	s58-5.5,79.4-15.3c10.1-4.7,18.3-10.1,24.6-16.2L210,210z M185.4,150c-21.4,9.9-49.6,15.3-79.4,15.3c-29.8,0-58-5.5-79.4-15.3
	C16.5,145.3,8.2,139.8,2,133.7v23.6h0c0.8,26.2,47,47.3,104,47.3c57.4,0,104-21.5,104-48l0-22.9C203.7,139.8,195.5,145.3,185.4,150z
	 M106,2C48.6,2,2,23.5,2,50s46.6,48,104,48s104-21.5,104-48S163.4,2,106,2z M185.4,96.7C164,106.5,135.8,112,106,112
	s-58-5.5-79.4-15.3C16.5,92,8.2,86.5,2,80.4v23c0,26.5,46.6,48,104,48s104-21.5,104-48l0-22.9C203.7,86.5,195.5,92,185.4,96.7z"/>
</svg>
