<?xml version="1.0" encoding="utf-8"?>
<!-- Generator: Adobe Illustrator 24.1.3, SVG Export Plug-In . SVG Version: 6.00 Build 0)  -->
<svg version="1.1" id="Layer_1" xmlns:sketch="http://www.bohemiancoding.com/sketch/ns"
	 xmlns="http://www.w3.org/2000/svg" xmlns:xlink="http://www.w3.org/1999/xlink" x="0px" y="0px" viewBox="0 0 512 512"
	 style="enable-background:new 0 0 512 512;" xml:space="preserve">
<style type="text/css">
	.st0{fill-rule:evenodd;clip-rule:evenodd;fill:#FFFFFF;}
</style>
<g sketch:type="MSPage">
	<g transform="translate(2.000000, 2.000000)" sketch:type="MSLayerGroup">
		<path sketch:type="MSShapeGroup" class="st0" d="M419,49.2l-187,187c-11,11-11,28.8,0,39.8c11,11,28.8,11,39.8,0l187-187v62.5
			c0,14.1,11.5,25.6,25.6,25.6c14.1,0,25.6-11.5,25.6-25.6v-128c0-7-2.9-13.4-7.5-18.1c-4.6-4.6-11-7.5-18.1-7.5h-128
			c-14.1,0-25.6,11.5-25.6,25.6c0,14.1,11.5,25.6,25.6,25.6H419L419,49.2z M510,305.2v141c0,35.2-25.4,63.8-56.7,63.8H54.7
			C23.4,510-2,481.4-2,446.2V61.8C-2,26.6,23.4-2,54.7-2H328H202.8c14.1,0,25.6,11.5,25.6,25.6s-11.5,25.6-25.6,25.6h-139
			c-8.1,0-14.6,7.6-14.6,17.1v375.4c0,9.3,6.5,17.1,14.6,17.1h380.4c8.1,0,14.6-7.6,14.6-17.1V305.2c0-14.1,11.5-25.6,25.6-25.6
			C498.5,279.6,510,291.1,510,305.2L510,305.2z"/>
	</g>
</g>
</svg>
