<?xml version="1.0" encoding="utf-8"?>
<!-- Generator: Adobe Illustrator 24.1.3, SVG Export Plug-In . SVG Version: 6.00 Build 0)  -->
<svg version="1.1" id="Capa_1" xmlns="http://www.w3.org/2000/svg" xmlns:xlink="http://www.w3.org/1999/xlink" x="0px" y="0px"
	 viewBox="0 0 512 512" style="enable-background:new 0 0 512 512;" xml:space="preserve">
<style type="text/css">
	.st0{fill:#FFFFFF;}
</style>
<g>
	<path class="st0" d="M105.9,265.7l-18.3,54.8c-1.8,5.4-0.4,11.3,3.6,15.4l84.9,84.9c4,4,10,5.4,15.4,3.6l54.8-18.3L105.9,265.7z"/>
	<path class="st0" d="M282.2,420.8c-7.4,7.3-13.3,8.9-17.6,10.9l-40.8,13.6l-9.4,48.8c-1,5,0.6,10,4.1,13.5
		c4.9,4.9,12.4,5.8,18.3,2.2l106.1-65.6c5.4-3.3,8.2-9.6,7-15.8l-12.6-62.8L282.2,420.8z"/>
	<path class="st0" d="M17.9,297.6l48.8-9.4L81,245.7c3.4-7.1,4.8-10.3,10.3-15.9l55.2-55.2l-62.8-12.6c-6.2-1.2-12.5,1.6-15.8,7
		L2.1,275.2c-3.1,5.1-2.8,11.5,0.6,16.4C6.3,296.5,12.3,298.7,17.9,297.6z"/>
	<path class="st0" d="M486.4,4.4L459,31.8c-55.1,0-90.5,0.9-128.5,19.9c1.3,33.4,14.9,66.1,39.3,90.6c24.5,24.5,57,38,90.6,39.2
		c19-37.9,19.8-73.4,19.8-128.4l27.4-27.4c5.9-5.9,5.9-15.4,0-21.2C501.7-1.5,492.3-1.5,486.4,4.4z"/>
	<ellipse class="st0" cx="271.6" cy="240.4" rx="15" ry="15"/>
	<path class="st0" d="M302.2,68.8c-17.8,12.6-37.1,29.5-59.8,52.3L123.1,240.4l148.5,148.5l119.4-119.4c22.6-22.6,39.4-41.8,52-59.4
		c-35.1-4.8-68.4-20.7-94.4-46.6C322.5,137.5,307,103.9,302.2,68.8z M303.4,272.3c-17.5,17.5-46.1,17.5-63.6,0
		c-17.5-17.5-17.5-46.1,0-63.6c17.5-17.5,46.1-17.5,63.6,0C320.9,226.2,320.9,254.7,303.4,272.3z"/>
	<path class="st0" d="M42,385.2C24.9,402.2,8,444.4,0.2,494.7c-0.7,4.7,0.8,9.5,4.2,12.9s8.2,5,12.9,4.2
		c50.2-7.8,92.4-24.7,109.5-41.8c10.8-10.8,16.4-24.7,17.2-38.9L80.9,368C66.7,368.8,52.8,374.4,42,385.2z"/>
</g>
</svg>
