<?xml version="1.0" encoding="utf-8"?>
<!-- Generator: Adobe Illustrator 24.1.3, SVG Export Plug-In . SVG Version: 6.00 Build 0)  -->
<svg version="1.1" id="Capa_1" xmlns="http://www.w3.org/2000/svg" xmlns:xlink="http://www.w3.org/1999/xlink" x="0px" y="0px"
	 viewBox="0 0 512 512" style="enable-background:new 0 0 512 512;" xml:space="preserve">
<style type="text/css">
	.st0{fill:#FFFFFF;}
</style>
<g>
	<path class="st0" d="M512,159.8c0-36.8,0-62.6,0-65.1c0-27.4-20.2-49.6-45-49.6h-6v60.7c0,9.1-6.7,16.5-15,16.5s-15-7.4-15-16.5
		c0-18.6,0-69.7,0-88.2C431,8.4,424.3,1,416,1s-15,7.4-15,16.5v27.6H301v60.7c0,9.1-6.7,16.5-15,16.5s-15-7.4-15-16.5
		c0-18.6,0-69.7,0-88.2C271,8.4,264.3,1,256,1s-15,7.4-15,16.5v27.6H141v60.7c0,9.1-6.7,16.5-15,16.5s-15-7.4-15-16.5
		c0-18.6,0-69.7,0-88.2C111,8.4,104.3,1,96,1S81,8.4,81,17.5v27.6H45c-24.8,0-45,22.3-45,49.6v65.1H512z"/>
	<path class="st0" d="M0,192.9v268c0,27.4,20.2,49.6,45,49.6h422c24.8,0,45-22.3,45-49.6c0-7.1,0-161.9,0-268
		C502.7,192.9,5.2,192.9,0,192.9z M144,422.3h-32c-8.3,0-15-7.4-15-16.5s6.7-16.5,15-16.5h32c8.3,0,15,7.4,15,16.5
		S152.3,422.3,144,422.3z M144,351.7h-32c-8.3,0-15-7.4-15-16.5s6.7-16.5,15-16.5h32c8.3,0,15,7.4,15,16.5S152.3,351.7,144,351.7z
		 M144,281.1h-32c-8.3,0-15-7.4-15-16.5s6.7-16.5,15-16.5h32c8.3,0,15,7.4,15,16.5S152.3,281.1,144,281.1z M272,422.3h-32
		c-8.3,0-15-7.4-15-16.5s6.7-16.5,15-16.5h32c8.3,0,15,7.4,15,16.5S280.3,422.3,272,422.3z M272,351.7h-32c-8.3,0-15-7.4-15-16.5
		s6.7-16.5,15-16.5h32c8.3,0,15,7.4,15,16.5S280.3,351.7,272,351.7z M272,281.1h-32c-8.3,0-15-7.4-15-16.5s6.7-16.5,15-16.5h32
		c8.3,0,15,7.4,15,16.5S280.3,281.1,272,281.1z M400,422.3h-32c-8.3,0-15-7.4-15-16.5s6.7-16.5,15-16.5h32c8.3,0,15,7.4,15,16.5
		S408.3,422.3,400,422.3z M400,351.7h-32c-8.3,0-15-7.4-15-16.5s6.7-16.5,15-16.5h32c8.3,0,15,7.4,15,16.5S408.3,351.7,400,351.7z
		 M400,281.1h-32c-8.3,0-15-7.4-15-16.5s6.7-16.5,15-16.5h32c8.3,0,15,7.4,15,16.5S408.3,281.1,400,281.1z"/>
</g>
</svg>
