<?xml version="1.0" encoding="utf-8"?>
<!-- Generator: Adobe Illustrator 24.1.3, SVG Export Plug-In . SVG Version: 6.00 Build 0)  -->
<svg version="1.1" id="Capa_1" xmlns="http://www.w3.org/2000/svg" xmlns:xlink="http://www.w3.org/1999/xlink" x="0px" y="0px"
	 viewBox="0 0 512 512" style="enable-background:new 0 0 512 512;" xml:space="preserve">
<style type="text/css">
	.st0{fill:#FFFFFF;}
</style>
<path class="st0" d="M303.4,103.5V1H85.6c-11.7,0-21.2,9.5-21.2,21.2v468.6c0,11.7,9.5,21.2,21.2,21.2h339.2
	c11.7,0,21.2-9.5,21.2-21.2V143.1h-103C321.2,143.1,303.4,125.4,303.4,103.5L303.4,103.5z M217.8,401.8l-45.1,45.1
	c-2.9,2.9-6.8,4.4-10.6,4.4s-7.7-1.5-10.6-4.4l-18.7-18.7c-5.8-5.8-5.8-15.3,0-21.2c5.8-5.8,15.3-5.8,21.2,0l8.1,8.1l34.5-34.5
	c5.8-5.8,15.3-5.8,21.2,0C223.7,386.4,223.7,395.9,217.8,401.8L217.8,401.8z M217.8,302l-45.1,45.1c-2.9,2.9-6.8,4.4-10.6,4.4
	s-7.7-1.5-10.6-4.4l-18.7-18.7c-5.8-5.8-5.8-15.3,0-21.2c5.8-5.8,15.3-5.8,21.2,0l8.1,8.1l34.5-34.5c5.8-5.8,15.3-5.8,21.2,0
	C223.7,286.6,223.7,296.1,217.8,302L217.8,302z M217.8,194.5l-45.1,45.1c-2.9,2.9-6.8,4.4-10.6,4.4s-7.7-1.5-10.6-4.4l-18.7-18.7
	c-5.8-5.8-5.8-15.3,0-21.2c5.8-5.8,15.3-5.8,21.2,0l8.1,8.1l34.5-34.5c5.8-5.8,15.3-5.8,21.2,0C223.7,179.2,223.7,188.7,217.8,194.5
	L217.8,194.5z M367.2,428.7h-95.8c-8.3,0-15-6.7-15-15c0-8.3,6.7-15,15-15h95.8c8.3,0,15,6.7,15,15
	C382.1,422,375.4,428.7,367.2,428.7z M256.4,313.9c0-8.3,6.7-15,15-15h95.4c8.3,0,15,6.7,15,15c0,8.3-6.7,15-15,15h-95.4
	C263.1,328.9,256.4,322.2,256.4,313.9z M381.7,214.1c0,8.3-6.7,15-15,15h-95.4c-8.3,0-15-6.7-15-15s6.7-15,15-15h95.4
	C375,199.2,381.7,205.9,381.7,214.1L381.7,214.1z"/>
<path class="st0" d="M333.4,103.5c0,5.3,4.3,9.7,9.7,9.7h104.5L333.4,0V103.5z"/>
</svg>
