<?xml version="1.0" encoding="utf-8"?>
<!-- Generator: Adobe Illustrator 24.1.3, SVG Export Plug-In . SVG Version: 6.00 Build 0)  -->
<svg version="1.1" id="Capa_1" xmlns="http://www.w3.org/2000/svg" xmlns:xlink="http://www.w3.org/1999/xlink" x="0px" y="0px"
	 viewBox="0 0 474.6 474.6" style="enable-background:new 0 0 474.6 474.6;" xml:space="preserve">
<style type="text/css">
	.st0{fill:#FFFFFF;}
</style>
<g>
	<path class="st0" d="M52.9,247.8v-0.3v-51.3h11.3v55.6c0.5,4.5,0.1,9-1.1,13.4c-1.3,4.3-3.4,8.4-6.3,11.9c-5.3,4.6-12.1,7.1-19.2,7
		l-1.2-8.4c4.5,0,8.9-1.7,12.3-4.7C51.7,267.3,52.9,262.5,52.9,247.8z M136.9,241.2c0,6.3,0,11.9,0.5,16.8h-10l-0.7-10
		c-2.1,3.5-5.1,6.5-8.7,8.5s-7.6,3-11.8,3c-9.7,0-21.3-5.3-21.3-26.9v-35.9h11.3v33.6c0,11.7,3.6,19.5,13.8,19.5
		c2.1,0,4.2-0.4,6.1-1.2s3.7-2,5.2-3.4c1.5-1.5,2.6-3.2,3.4-5.2c0.8-1.9,1.2-4,1.2-6.1v-37.6h11.3v44.6L136.9,241.2z M158.2,216.6
		c0-7.8,0-14.2-0.5-20h10.1l0.5,10.5c2.2-3.8,5.5-6.9,9.4-9s8.3-3.1,12.7-2.9c15,0,26.2,12.5,26.2,31.2c0,22-13.5,32.9-28.2,32.9
		c-3.7,0.2-7.5-0.6-10.8-2.3c-3.3-1.7-6.2-4.2-8.3-7.3v33.6h-11.1v-66.4L158.2,216.6L158.2,216.6z M169.3,233c0,1.5,0.2,3,0.5,4.5
		c1,3.7,3.1,7,6.2,9.4c3,2.4,6.8,3.6,10.6,3.6c11.8,0,18.8-9.7,18.8-23.7c0-12.3-6.6-22.8-18.4-22.8c-4.7,0.4-9.1,2.5-12.3,5.9
		c-3.3,3.4-5.2,7.9-5.4,12.6L169.3,233L169.3,233z M236.6,196.6l13.5,36.2c1.4,4,2.9,8.9,3.9,12.5c1.2-3.7,2.4-8.4,3.9-12.8l12.3-36
		H282l-16.8,43.7c-8.4,21-13.5,31.8-21.3,38.4c-3.9,3.6-8.6,6-13.8,7.2l-2.8-9.4c3.6-1.2,6.9-3,9.8-5.5c4.1-3.3,7.4-7.6,9.5-12.4
		c0.5-0.8,0.8-1.7,0.9-2.7c-0.1-1-0.4-2-0.8-2.9l-22.9-56.6h12.3L236.6,196.6z M312,178.9v17.6h16.1v8.4H312V238
		c0,7.6,2.2,11.9,8.4,11.9c2.2,0,4.4-0.2,6.6-0.8l0.5,8.4c-3.2,1.1-6.6,1.6-10,1.5c-2.3,0.1-4.5-0.2-6.6-1s-4-2.1-5.6-3.7
		c-3.4-4.6-5-10.3-4.4-16v-33.6h-9.6v-8.4h9.7v-15L312,178.9z M348.9,229.2c-0.2,2.8,0.2,5.7,1.2,8.4s2.5,5.1,4.6,7.1
		c2,2,4.5,3.6,7.1,4.6c2.7,1,5.5,1.4,8.4,1.2c5.8,0.1,11.5-1,16.8-3.2l1.9,8.4c-6.5,2.7-13.5,4-20.6,3.8c-4.1,0.3-8.2-0.3-12.1-1.8
		s-7.3-3.7-10.2-6.7c-2.9-2.9-5.1-6.5-6.5-10.3c-1.4-3.9-1.9-8-1.6-12.1c0-18.5,11-33.1,29-33.1c20.2,0,25.2,17.6,25.2,28.9
		c0.1,1.7,0.1,3.5,0,5.2h-43.4L348.9,229.2z M381.8,220.8c0.3-2.2,0.2-4.5-0.5-6.7c-0.6-2.2-1.7-4.2-3.2-5.9s-3.3-3.1-5.4-4.1
		s-4.3-1.5-6.6-1.5c-4.6,0.3-8.9,2.4-12.1,5.7c-3.2,3.4-5,7.8-5.1,12.4h32.9V220.8z M409.2,215.7c0-7.2,0-13.4-0.5-19.2h10.1v12h0.5
		c1.1-3.7,3.2-7,6.3-9.4c3-2.4,6.7-3.8,10.5-4c1.1-0.1,2.1-0.1,3.2,0v10.5c-1.3-0.1-2.6-0.1-3.9,0c-3.8,0.1-7.4,1.7-10.2,4.3
		c-2.8,2.6-4.5,6.2-4.8,10c-0.3,1.7-0.5,3.5-0.5,5.2v32.7h-11.1v-42L409.2,215.7z"/>
	<path class="st0" d="M404.2,27.8c0.3,5.6-1,11.3-3.9,16.1c-2.9,4.9-7.1,8.8-12.2,11.3s-10.8,3.3-16.4,2.5s-10.8-3.2-15-7
		s-7.2-8.7-8.6-14.2s-1.1-11.3,0.8-16.6s5.4-10,9.9-13.3s10-5.3,15.7-5.5c3.7-0.2,7.4,0.3,10.9,1.6c3.5,1.2,6.7,3.1,9.5,5.6
		s5,5.5,6.6,8.8C403.2,20.4,404.1,24.1,404.2,27.8z"/>
	<path class="st0" d="M238.1,356.9c-75.6,0-142.1-27.1-176.5-67.2c13.3,36.1,37.4,67.2,68.9,89.1c31.5,22,69.1,33.7,107.5,33.7
		s76-11.8,107.5-33.7c31.5-22,55.6-53.1,68.9-89.1C380.3,329.7,314.1,356.9,238.1,356.9z"/>
	<path class="st0" d="M238.1,96.2c75.6,0,142.1,27.1,176.5,67.2c-13.3-36.1-37.4-67.2-68.9-89.1c-31.6-22-69.1-33.7-107.5-33.7
		s-76,11.8-107.5,33.7C99,96.3,75,127.4,61.6,163.5C96,123.3,162.1,96.2,238.1,96.2z"/>
	<path class="st0" d="M134,434.9c0.4,7.1-1.2,14.2-4.8,20.3c-3.6,6.2-8.9,11.1-15.4,14.2c-6.4,3.1-13.6,4.2-20.7,3.2
		c-7.1-1-13.7-4.1-18.9-8.8c-5.3-4.8-9.1-11-10.8-17.9s-1.4-14.2,1-20.9c2.4-6.7,6.7-12.5,12.5-16.8c5.7-4.2,12.6-6.7,19.7-7
		c4.7-0.2,9.3,0.4,13.7,2c4.4,1.6,8.5,4,11.9,7.1c3.5,3.1,6.3,6.9,8.3,11.1C132.6,425.7,133.7,430.2,134,434.9z"/>
	<path class="st0" d="M70.2,87.1c-4.1,0.1-8.1-1-11.5-3.1c-3.5-2.2-6.2-5.3-7.9-9s-2.2-7.8-1.6-11.9s2.5-7.8,5.3-10.7
		c2.8-3,6.4-5.1,10.4-6s8.1-0.7,11.9,0.7s7.1,3.9,9.5,7.2s3.8,7.2,3.9,11.3c0.2,5.5-1.9,10.9-5.6,14.9S75.7,86.9,70.2,87.1z"/>
</g>
</svg>
