<?xml version="1.0" encoding="utf-8"?>
<!-- Generator: Adobe Illustrator 21.0.0, SVG Export Plug-In . SVG Version: 6.00 Build 0)  -->
<svg version="1.1" id="Layer_1" xmlns="http://www.w3.org/2000/svg" xmlns:xlink="http://www.w3.org/1999/xlink" x="0px" y="0px"
	 viewBox="0 0 676.1 201.4" style="enable-background:new 0 0 676.1 201.4;" xml:space="preserve">
<style type="text/css">
	.st0{fill:#C7DBF4;}
	.st1{clip-path:url(#SVGID_2_);fill:#95B4E6;}
	.st2{fill:#365ABD;}
	.st3{clip-path:url(#SVGID_4_);fill:#A3D00D;}
	.st4{fill:#FFFFFF;}
</style>
<g>
	<g>
		<path class="st0" d="M135.7,81.6v-0.8V80l-5.1-3.1l-54.7-32c-2.2-1.2-4.8-1.2-6.9,0l-61.6,36C5.3,82.1,4,84.3,4,86.8l0.1,72.1
			c0,2.4,1.3,4.7,3.4,5.9L62,196.6c4.6,2.7,10.3-0.6,10.3-5.9l0.3-64.2c0-2.4,1.3-4.7,3.4-5.9l54.6-31.9c0,0,1.7-1,3.3-0.5
			s2,1.7,2,3.4L135.7,81.6z"/>
		<g>
			<g>
				<defs>
					<polygon id="SVGID_1_" points="77.9,126.1 78.2,217.2 4.1,173.6 4,82.5 					"/>
				</defs>
				<clipPath id="SVGID_2_">
					<use xlink:href="#SVGID_1_"  style="overflow:visible;"/>
				</clipPath>
				<path class="st1" d="M135.7,81.6v-0.8V80l-5.1-3.1l-54.7-32c-2.2-1.2-4.8-1.2-6.9,0l-61.6,36C5.3,82.1,4,84.3,4,86.8l0.1,72.1
					c0,2.4,1.3,4.7,3.4,5.9L62,196.6c4.6,2.7,10.3-0.6,10.3-5.9l0.3-64.2c0-2.4,1.3-4.7,3.4-5.9l54.6-31.9c0,0,1.7-1,3.3-0.5
					s2,1.7,2,3.4L135.7,81.6z"/>
			</g>
		</g>
		<path class="st2" d="M202.9,119.7c0.7-1,1-2.2,1-3.4l0.1-72.6c0-2.3-1.2-4.4-3.2-5.5L145.3,5.7c-4.2-2.5-9.6,0.6-9.6,5.5l0.1,69.3
			L202.9,119.7z"/>
		<g>
			<g>
				<defs>
					<path id="SVGID_3_" d="M135.7,11.2l0.1,137.5c0,5,5.3,8,9.6,5.5l55.4-32.4c2-1.2,3.1-3.3,3.1-5.5l0.1-72.6
						c0-2.3-1.2-4.4-3.2-5.5L145.3,5.7C141,3.2,135.7,6.2,135.7,11.2z"/>
				</defs>
				<clipPath id="SVGID_4_">
					<use xlink:href="#SVGID_3_"  style="overflow:visible;"/>
				</clipPath>
				<polygon class="st3" points="135.7,160 135.4,79.8 203.8,119.9 				"/>
			</g>
		</g>
	</g>
	<g>
		<path class="st4" d="M257.1,55.9c0-2.3,1.5-4,4-4h20.7c13.4,0,21.5,8.1,21.5,20s-8.1,20-21.5,20h-15.3c-0.4,0-0.6,0.2-0.6,0.6
			v22.2c0,2.9-1.8,4.8-4.4,4.8c-2.7,0-4.4-1.8-4.4-4.8V55.9z M294.7,72c0-7.3-4.8-11.9-13.1-11.9h-15c-0.4,0-0.6,0.2-0.6,0.6v22.5
			c0,0.4,0.2,0.6,0.6,0.6h15C289.8,83.8,294.7,79.3,294.7,72z"/>
		<path class="st4" d="M315.4,115.1V75.8c0-2.7,1.8-4.4,4.2-4.4c2.3,0,4.2,1.7,4.2,4.4v2.2h0.1c2-4.2,6.3-7.2,12.1-7.2
			c3.3,0,5.4,0.8,7,1.7c1.7,0.9,2.3,2.2,2.3,3.6c0,2.3-1.7,4.2-4.2,4.2c-0.6,0-1.4-0.2-2.1-0.5c-1.8-0.7-3.5-1.2-5.4-1.2
			c-7.1,0-10,5.9-10,13.8v22.9c0,2.7-1.8,4.4-4.2,4.4C317.1,119.6,315.4,117.9,315.4,115.1z"/>
		<path class="st4" d="M354.2,56.9c0-3.1,2.5-5.4,5.4-5.4s5.4,2.3,5.4,5.4c0,2.9-2.5,5.4-5.4,5.4C356.7,62.3,354.2,59.9,354.2,56.9z
			 M355.5,75.7c0-2.7,1.8-4.4,4.2-4.4c2.3,0,4.2,1.7,4.2,4.4v39.4c0,2.7-1.8,4.4-4.2,4.4c-2.3,0-4.2-1.7-4.2-4.4V75.7z"/>
		<path class="st4" d="M379.9,75.7c0-2.7,1.8-4.4,4.2-4.4c2.3,0,4.2,1.7,4.2,4.4v1.4h0.1c2.5-3.8,6.8-6.4,13.2-6.4
			c6.5,0,11.3,2.7,13.8,7.4h0.1c3.1-4.4,7.9-7.4,15.3-7.4c10.7,0,16.9,6.7,16.9,17.8v26.6c0,2.7-1.8,4.4-4.2,4.4
			c-2.3,0-4.2-1.7-4.2-4.4V90.4c0-7.6-3.5-12.1-10.6-12.1c-6.4,0-10.9,4.6-10.9,11.5v25.1c0,2.7-1.8,4.4-4.2,4.4
			c-2.3,0-4.2-1.7-4.2-4.4V90.4c0-7.6-3.5-12.1-10.6-12.1c-6.4,0-10.9,4.6-10.9,11.5V115c0,2.7-1.8,4.4-4.2,4.4
			c-2.3,0-4.2-1.7-4.2-4.4L379.9,75.7L379.9,75.7z"/>
		<path class="st4" d="M462,107.3c-1-2.9-1.6-6.3-1.6-11.9c0-5.6,0.5-9,1.5-11.9c2.7-8.2,9.4-12.7,18.4-12.7c9.3,0,16,4.6,18.6,12.6
			c1.1,3.1,1.6,6.8,1.6,11.5c0,1.9-1.3,3.1-3.3,3.1h-27.8c-0.4,0-0.6,0.2-0.6,0.6c0,2.3,0.2,3.8,0.8,5.7c1.8,5.4,6.1,8.2,11.9,8.2
			c4.6,0,7.8-1.4,11.3-4c1-0.8,1.9-1.2,2.9-1.2c2,0,3.5,1.5,3.5,3.5c0,1.2-0.5,2.2-1.3,2.9c-4,3.8-9.6,6.5-16.9,6.5
			C471.3,120.1,464.7,115.6,462,107.3z M491.4,91.3c0.4,0,0.6-0.2,0.6-0.6c0-2.2-0.2-3.8-0.7-5.3c-1.6-4.8-5.5-7.4-10.9-7.4
			c-5.3,0-9.3,2.7-10.9,7.4c-0.5,1.5-0.7,3.1-0.7,5.3c0,0.4,0.2,0.6,0.6,0.6H491.4z"/>
		<path class="st4" d="M514,56.2c0-2.9,1.8-4.8,4.4-4.8c2.5,0,4.4,1.8,4.4,4.8v24.2c0,0.4,0.2,0.6,0.6,0.6h29.1
			c0.4,0,0.6-0.2,0.6-0.6V56.2c0-2.9,1.8-4.8,4.4-4.8c2.5,0,4.4,1.8,4.4,4.8v58.6c0,2.9-1.8,4.8-4.4,4.8c-2.7,0-4.4-1.8-4.4-4.8v-25
			c0-0.4-0.2-0.6-0.6-0.6h-29.1c-0.4,0-0.6,0.2-0.6,0.6v25c0,2.9-1.8,4.8-4.4,4.8c-2.7,0-4.4-1.8-4.4-4.8V56.2z"/>
		<path class="st4" d="M615.3,115.1c0,2.7-1.8,4.4-4.2,4.4c-2.3,0-4.2-1.7-4.2-4.4v-1.4h-0.1c-2.3,3.6-6.6,6.4-13,6.4
			c-10.2,0-16.3-7-16.3-17.8V75.7c0-2.7,1.8-4.4,4.2-4.4c2.3,0,4.2,1.7,4.2,4.4v24.7c0,7.6,3.3,12.1,10.5,12.1
			c6.4,0,10.6-4.6,10.6-11.5V75.8c0-2.7,1.8-4.4,4.2-4.4c2.3,0,4.2,1.7,4.2,4.4V115.1z"/>
		<path class="st4" d="M631.4,115.1V55.9c0-2.7,1.8-4.4,4.2-4.4c2.3,0,4.2,1.7,4.2,4.4V77h0.1c2.2-3.6,6.3-6.3,13.4-6.3
			c8,0,13.8,4.4,16.3,11.9c1.2,3.7,1.7,7.5,1.7,12.8c0,5.4-0.5,9.2-1.7,12.9c-2.5,7.4-8.3,11.9-16.3,11.9c-7,0-11.1-2.5-13.4-6.3
			h-0.1v1.3c0,2.7-1.8,4.4-4.2,4.4C633.2,119.6,631.4,117.9,631.4,115.1z M661.6,105c0.9-2.5,1.1-5.5,1.1-9.6c0-4-0.2-7-1.1-9.6
			c-1.6-4.8-5.1-7.4-10.4-7.4c-5.3,0-8.9,2.7-10.5,7.4c-0.9,2.5-1.1,5.5-1.1,9.6c0,4.2,0.2,7.1,1.1,9.6c1.6,4.8,5.1,7.4,10.5,7.4
			C656.5,112.5,660,109.8,661.6,105z"/>
	</g>
</g>
</svg>
