<?xml version="1.0" encoding="UTF-8"?>
<svg width="309px" height="297px" viewBox="0 0 309 297" version="1.1" xmlns="http://www.w3.org/2000/svg" xmlns:xlink="http://www.w3.org/1999/xlink">
    <!-- Generator: Sketch 52.2 (67145) - http://www.bohemiancoding.com/sketch -->
    <title>logo</title>
    <desc>Created with Sketch.</desc>
    <g id="Page-1" stroke="none" stroke-width="1" fill="none" fill-rule="evenodd">
        <g id="PrimeHub" fill-rule="nonzero">
            <g id="Logo">
                <path d="M203.2,118.8 L203.2,117.6 L203.2,116.4 L195.3,111.6 L111.3,62.5 C108,60.6 104,60.6 100.7,62.5 L6.2,117.7 C3,119.6 1,123 1,126.8 L1.2,237.4 C1.2,241.1 3.2,244.6 6.4,246.4 L90,295.4 C97,299.5 105.8,294.5 105.8,286.4 L106.2,187.8 C106.2,184.1 108.2,180.6 111.4,178.8 L195.2,129.8 C195.2,129.8 197.8,128.3 200.2,129 C202.6,129.7 203.2,131.6 203.2,134.2 L203.2,118.8 Z" id="Shape" fill="#C7DBF4"></path>
                <path d="M306.3,177.3 C307.3,175.8 307.8,174 307.8,172.1 L308,60.7 C308,57.2 306.2,54 303.1,52.2 L217.8,2.3 C211.3,-1.5 203,3.2 203,10.8 L203.1,117.1 L306.3,177.3 Z" id="Shape" fill="#365ABD"></path>
                <path d="M207,229.6 C203.4,227.2 203.3,222.6 203.3,222.6 L203,116.4 L307.6,177.8 L216.9,231 C212.1,233.1 207,229.6 207,229.6 Z" id="Shape" fill="#A3D00D"></path>
                <path d="M4.7,245.2 L5.5,245.8 C5.7,245.9 5.8,246.1 6,246.2 L90.5,295.7 C90.6,295.8 90.7,295.8 90.9,295.9 C92.2,296.5 97,298.1 101,295.2 C101,295.2 104.9,292.7 105.6,288.5 C105.6,288.3 105.8,288 105.7,287.4 L106.2,187.5 C106.2,187.5 106.3,184.7 107.4,183.1 L2.5,121.2 L2.4,121.4 C1.3,123.4 0.8,125.7 0.9,127.9 C0.9,128.7 0.9,129.4 0.9,130.2 C0.9,131.6 0.9,133.1 0.9,134.5 C0.9,136.3 0.9,138.2 0.9,140 C0.9,142.2 0.9,144.3 0.9,146.5 C0.9,148.9 0.9,151.4 0.9,153.8 C0.9,156.4 0.9,159.1 0.9,161.7 C0.9,164.5 0.9,167.3 0.9,170.1 C0.9,173 0.9,175.8 0.9,178.7 C0.9,181.6 0.9,184.5 0.9,187.4 C0.9,190.2 0.9,193.1 0.9,195.9 C0.9,198.6 0.9,201.4 0.9,204.1 C0.9,206.7 0.9,209.2 0.9,211.8 C0.9,214.1 0.9,216.4 0.9,218.8 C0.9,220.8 0.9,222.9 0.9,224.9 C0.9,226.6 0.9,228.2 0.9,229.9 C0.9,231.1 0.9,232.4 0.9,233.6 C0.9,234.4 0.9,235.1 0.9,235.9 C0.9,236.1 0.9,236.3 0.9,236.5 C1.2,236.6 0.6,241.9 4.7,245.2 Z" id="Shape" fill="#95B4E6"></path>
            </g>
        </g>
    </g>
</svg>